<svg xmlns="http://www.w3.org/2000/svg" xmlns:xlink="http://www.w3.org/1999/xlink" width="755" height="755" viewBox="0 0 755 755">
  <defs>
    <clipPath id="clip-ICONOS_INTERNOS_AREA_ELÉCTRICA_1">
      <rect width="755" height="755"/>
    </clipPath>
  </defs>
  <g id="ICONOS_INTERNOS_AREA_ELÉCTRICA_1" data-name="ICONOS INTERNOS AREA ELÉCTRICA – 1" clip-path="url(#clip-ICONOS_INTERNOS_AREA_ELÉCTRICA_1)">
    <rect width="755" height="755" fill="#fff"/>
    <g id="_Group_" data-name="&lt;Group&gt;" transform="translate(-143.919 -194.373)">
      <path id="_Compound_Path_" data-name="&lt;Compound Path&gt;" d="M479.271,331.312H431.31v-3.754c0-19.3-15.494-35.558-33.9-35.558H356.271c-18.4,0-33.647,16.256-33.647,35.558v3.754h-44.7c-18.4,0-33.919,15.569-33.919,34.87v39.532c0,5.108,4.684,8.846,9.792,8.846h5.239v69.75c0,19.3,14.809,35.468,33.213,35.468h172.7c18.4,0,33.431-16.165,33.431-35.468v-69.75H503.4a8.578,8.578,0,0,0,8.848-8.846V366.183C512.246,346.881,497.678,331.312,479.271,331.312Zm-138.147-3.754c0-9.1,6.947-17.058,15.147-17.058h41.14c8.2,0,15.4,7.956,15.4,17.058v3.754H341.124ZM262.5,366.183c0-9.1,7.216-16.371,15.42-16.371H479.271c8.2,0,14.475,7.27,14.475,16.371v29.879h-79.78v-12.3a9.77,9.77,0,0,0-9.428-9.671H348.83c-5.108,0-8.863,4.561-8.863,9.671v12.3H262.5Zm132.967,26.41V418.03h-37V392.592Zm84.4,91.718c0,9.106-6.726,16.968-14.931,16.968h-172.7c-8.209,0-14.713-7.862-14.713-16.968v-69.75h62.437v13.1a8.6,8.6,0,0,0,8.863,8.864h55.708a9.084,9.084,0,0,0,9.428-8.864v-13.1h65.906Z" transform="translate(254.726 271.595)" fill="#dc1c17"/>
      <path id="_Compound_Path_2" data-name="&lt;Compound Path&gt;" d="M131.754,118.654a40.815,40.815,0,0,0,40.754-40.863V64.277a40.754,40.754,0,0,0-81.508,0V77.789A40.815,40.815,0,0,0,131.754,118.654ZM105.175,64.277c0-14.716,11.922-27.042,26.638-27.042h-.084c14.716,0,26.6,12.326,26.6,27.042V77.789a26.579,26.579,0,1,1-53.157,0Z" transform="translate(255.54 278.478)" fill="#dc1c17"/>
      <path id="_Compound_Path_3" data-name="&lt;Compound Path&gt;" d="M211.994,132.045a51.909,51.909,0,0,0-5.207-.041H185.015a8.48,8.48,0,0,0-5.938,2.128l-31.932,29.853-30.7-29.691A8.528,8.528,0,0,0,110.4,132H87.3a51.137,51.137,0,0,0-51.566,51.307c0,1.582.3,3.066.3,4.642V291.991a31.8,31.8,0,0,0,9.153,22.528A31.357,31.357,0,0,0,67.353,324h.008l.354-.265a30.853,30.853,0,0,0,15.837-4.748l5.483,167.7a33.382,33.382,0,0,0,58.116,21.175,33.4,33.4,0,0,0,58.115-21.274l5.475-167.459a31.631,31.631,0,0,0,47.65-27.152V187.949a51.576,51.576,0,0,0-46.4-55.91ZM171.636,501.458A16.28,16.28,0,0,1,155.342,485.4V321.248a8.678,8.678,0,1,0-17.355,0V485.4a15.869,15.869,0,1,1-31.728.751l-6.28-195.782h94.345L187.8,486.129A15.981,15.981,0,0,1,171.636,501.458Zm69.352-314.8c-.029.29.046.582.046.875V291.972a14.1,14.1,0,1,1-28.2,0V263.9l.13-3.986c.021-.616-.13-1.219-.13-1.8V229.563a8.678,8.678,0,0,0-17.355,0v34.025l-.586,9.428H99.41l-.391-13.533c-.013-.4-.084-.94-.084-1.329V229.563a8.678,8.678,0,0,0-17.355,0v61.786c0,8.055-6.362,14.21-14.077,15.294h-.148a14.128,14.128,0,0,1-9.913-4.4,14.574,14.574,0,0,1-4.064-10.254V187.541c0-.293-.093-.586-.123-.876a34.44,34.44,0,0,1-.217-3.457,33.88,33.88,0,0,1,34.254-33.849h19.585l34.11,32.958c.053.052.109-.014.167.037.12.108.243.164.368.267.1.085.2.137.308.217.127.1.255.175.385.261.109.075.224.139.338.208s.258.149.389.217.246.126.37.185.258.119.39.173.263.108.4.153.259.09.392.13.273.08.412.115.264.064.4.091.279.052.42.074.271.039.408.053.276.025.414.034.281.013.422.014.267,0,.4-.006.292-.014.434-.027.257-.026.385-.044c.15-.019.3-.042.445-.07.126-.023.249-.05.373-.078.149-.035.3-.073.444-.115.121-.035.241-.074.361-.109.145-.049.29-.1.434-.158.119-.047.238-.1.355-.151q.21-.094.414-.2.176-.091.347-.191c.132-.076.263-.155.392-.239s.226-.151.336-.231.248-.182.371-.28.208-.174.311-.265c.067-.059.14.108.205.048l35.477-33.072h18.343A30.41,30.41,0,0,1,233.4,161.638a33.824,33.824,0,0,1,7.591,25.022Z" transform="translate(240.13 272.526)" fill="#dc1c17"/>
    </g>
  </g>
</svg>
