<svg xmlns="http://www.w3.org/2000/svg" xmlns:xlink="http://www.w3.org/1999/xlink" width="755" height="755" viewBox="0 0 755 755">
  <defs>
    <clipPath id="clip-ICONOS_INTERNOS_AREA_ELÉCTRICA_3">
      <rect width="755" height="755"/>
    </clipPath>
  </defs>
  <g id="ICONOS_INTERNOS_AREA_ELÉCTRICA_3" data-name="ICONOS INTERNOS AREA ELÉCTRICA – 3" clip-path="url(#clip-ICONOS_INTERNOS_AREA_ELÉCTRICA_3)">
    <rect width="755" height="755" fill="#fff"/>
    <g id="handshake-svgrepo-com_1_" data-name="handshake-svgrepo-com (1)" transform="translate(92.258 103.606)">
      <g id="Grupo_146" data-name="Grupo 146" transform="translate(0 84.014)">
        <rect id="XMLID_60_" width="178.181" height="72.833" transform="translate(10.009 178.531) rotate(-71.07)" fill="none"/>
        <path id="Trazado_281" data-name="Trazado 281" d="M186.75,108.274l-6.7,3.3a34.958,34.958,0,0,1-26.805,1.538l-11.205-3.955a8.317,8.317,0,0,0-1.977-.989L71.071,84.545A9.979,9.979,0,0,0,58.437,90.7L.543,259.327A9.9,9.9,0,0,0,6.695,271.96l68.88,23.619a11.423,11.423,0,0,0,3.186.549,10.038,10.038,0,0,0,9.448-6.7l54.6-158.853,3.735,1.318a55.429,55.429,0,0,0,42.295-2.417l6.7-3.3a34.893,34.893,0,0,1,26.585-1.648l126.665,43.613c-1.318,5.273-3.955,11.535-8.789,14.941-5.383,3.735-13.4,3.735-23.949.11l-56.466-19.335a9.925,9.925,0,0,0-7.91.659,10.45,10.45,0,0,0-4.944,6.262c-.11.33-7.91,29.551-32.847,42.954-15.71,8.459-35.264,8.789-58.224.989a9.936,9.936,0,1,0-6.482,18.785c13.183,4.5,25.6,6.811,37.132,6.811a76.483,76.483,0,0,0,36.912-9.008c22.3-11.974,33.836-32.957,39.109-45.481l47.128,16.149c16.808,5.822,30.87,4.944,41.746-2.637,17.467-12.084,18.346-36.582,18.456-37.681a9.967,9.967,0,0,0-6.7-9.667L228.5,105.637A55.6,55.6,0,0,0,186.75,108.274ZM72.718,273.5,22.624,256.36l51.3-149.735,50.095,17.138Z" transform="translate(0 -84.014)" fill="#dc1c17"/>
        <rect id="XMLID_142_" width="178.174" height="72.828" transform="translate(494.972 203.163) rotate(-116.073)" fill="none"/>
        <path id="Trazado_282" data-name="Trazado 282" d="M441.167,276.81,417.548,297.7a302.607,302.607,0,0,1-71.736,47.057L220.465,403.63a11.335,11.335,0,0,1-14.941-4.959,10.5,10.5,0,0,1,5.163-14.349l1.538-.739h0l68.551-32.18a9.381,9.381,0,0,0,4.614-12.766,10.127,10.127,0,0,0-13.293-4.431l-68.551,32.18h0l-34.495,16.248a11.335,11.335,0,0,1-14.941-4.959,10,10,0,0,1-.549-8.124,10.784,10.784,0,0,1,5.6-6.12L185.2,351.193h0l74.483-35.029A9.38,9.38,0,0,0,264.3,303.4a10.126,10.126,0,0,0-13.293-4.431L176.413,334.1h0l-2.856,1.372-35.594,16.776a11.21,11.21,0,0,1-8.459.527,10.942,10.942,0,0,1-6.372-5.381,10.5,10.5,0,0,1,5.163-14.349l12.3-5.8h0l25.157-11.817,7.031-3.271h0l57.785-27.221a9.38,9.38,0,0,0,4.614-12.766,10.127,10.127,0,0,0-13.293-4.431l-62.618,29.437-27.354,12.872a11.433,11.433,0,0,1-14.94-4.959,10,10,0,0,1-.549-8.124,10.784,10.784,0,0,1,5.6-6.12l47.788-22.473a9.381,9.381,0,0,0,4.614-12.767,10.126,10.126,0,0,0-13.293-4.431l-47.788,22.473a29.816,29.816,0,0,0-15.709,17.092,28.9,28.9,0,0,0,1.428,22.79,30.118,30.118,0,0,0,9.558,10.867,28.963,28.963,0,0,0-3.3,31.336,30.245,30.245,0,0,0,17.8,15.088,32.268,32.268,0,0,0,9.887,1.583,27.831,27.831,0,0,0,3.186,13.822,31.734,31.734,0,0,0,41.526,13.61l7.031-3.271a29.888,29.888,0,0,0,2.966,10.445,31.733,31.733,0,0,0,41.526,13.61L354.6,361.743a322.5,322.5,0,0,0,76.46-50.116l28.013-24.794,64.156-30.175a9.38,9.38,0,0,0,4.614-12.766L449.406,90.377a9.834,9.834,0,0,0-5.713-4.853,10.423,10.423,0,0,0-7.58.422l-65.475,30.7a9.38,9.38,0,0,0-4.614,12.766Zm-5.273-169.446L505.433,244l-47.568,22.368L388.326,129.732Z" transform="translate(41.633 -83.916)" fill="#dc1c17"/>
      </g>
    </g>
  </g>
</svg>
