<svg xmlns="http://www.w3.org/2000/svg" xmlns:xlink="http://www.w3.org/1999/xlink" width="755" height="755" viewBox="0 0 755 755">
  <defs>
    <clipPath id="clip-ICONOS_INTERNOS_AREA_ELÉCTRICA_2">
      <rect width="755" height="755"/>
    </clipPath>
  </defs>
  <g id="ICONOS_INTERNOS_AREA_ELÉCTRICA_2" data-name="ICONOS INTERNOS AREA ELÉCTRICA – 2" clip-path="url(#clip-ICONOS_INTERNOS_AREA_ELÉCTRICA_2)">
    <rect width="755" height="755" fill="#fff"/>
    <path id="b24253927fc95d8bde0233a6be5aec8b" d="M3542.29,3755.379a4.928,4.928,0,0,1-.2-.838l-20-79.163a7.554,7.554,0,0,1,5.481-9.151,7.292,7.292,0,0,1,1.835-.227h369.151a7.541,7.541,0,0,1,7.408,6.117l19.887,78.731a5.023,5.023,0,0,1,.2.838l19.889,78.731a5.705,5.705,0,0,1,.2.814l19.885,78.733a4.752,4.752,0,0,1,.205.838l19.888,78.731a5.207,5.207,0,0,1,.2.839l20,79.164a7.55,7.55,0,0,1-5.482,9.149,7.307,7.307,0,0,1-1.832.226h-88.654v50.216h41.836a7.543,7.543,0,0,1,0,15.086h-98.756a7.543,7.543,0,0,1,0-15.086h41.837v-50.216H3629.877a7.537,7.537,0,0,1-7.405-6.114l-19.887-78.71a4.751,4.751,0,0,1-.2-.838l-2.991-11.869v147.747h41.247a7.543,7.543,0,0,1,0,15.086h-98.778a7.543,7.543,0,1,1,0-15.086h42.424v-207.5l-1.791-7.089a5.182,5.182,0,0,1-.2-.839l-19.887-78.71a5.083,5.083,0,0,1-.2-.837l-19.887-78.708Zm57.1,164.371v.023l16.286,64.417h171.756l-16.285-64.462H3599.412Zm-3.828-15.107h171.757l-16.285-64.462H3579.278Zm187.3,0h166.3l-16.284-64.462h-166.3Zm170.124,15.107h-166.3l16.283,64.463h166.3Zm-397.625-174.2h171.758l-16.286-64.463H3539.073Zm171.01-64.463,16.287,64.463h166.3l-16.285-64.463Zm186.41,79.549h-166.3l16.284,64.463h166.3ZM3973.1,3999.3H3806.8l16.287,64.462h166.3Zm-165.572,64.462-16.287-64.462H3619.481l16.285,64.462ZM3575.473,3825.1h171.756l-16.285-64.463H3559.186Z" transform="translate(-3386.704 -3527.607)" fill="#dc1c17"/>
  </g>
</svg>
