<svg xmlns="http://www.w3.org/2000/svg" xmlns:xlink="http://www.w3.org/1999/xlink" width="755" height="755" viewBox="0 0 755 755">
  <defs>
    <clipPath id="clip-ICONOS_INTERNOS_AREA_ELÉCTRICA">
      <rect width="755" height="755"/>
    </clipPath>
  </defs>
  <g id="ICONOS_INTERNOS_AREA_ELÉCTRICA" data-name="ICONOS INTERNOS AREA ELÉCTRICA" clip-path="url(#clip-ICONOS_INTERNOS_AREA_ELÉCTRICA)">
    <rect width="755" height="755" fill="#fff"/>
    <path id="d5b012e298d8efeba186d20c3454f3f4" d="M326.25,48h-.669C172.142,48.4,48,172.811,48,326.25S172.142,604.1,325.581,604.5h.669c153.706,0,278.25-124.544,278.25-278.25S479.956,48,326.25,48Zm11.1,166.549a412.507,412.507,0,0,0,85.883-11.371c8.294,32.775,13.511,70.633,14.314,112.1h-100.2Zm0-22.34V72.079c29.965,8.294,60.466,48.292,79.729,109.695A390.632,390.632,0,0,1,337.353,192.208Zm-22.207-120.4v120.53a386.815,386.815,0,0,1-80.4-10.7c19.531-61.8,50.165-102.07,80.4-109.828Zm0,142.737v100.6H214.281c.8-41.47,6.02-79.328,14.314-112.1A418.958,418.958,0,0,0,315.147,214.549Zm-123.34,100.6H70.608a254.337,254.337,0,0,1,57.924-151.165,404.519,404.519,0,0,0,78.659,33.176c-9.1,35.45-14.448,75.448-15.384,117.989Zm0,22.207c.8,42.406,6.154,82.539,15.25,117.989A416.577,416.577,0,0,0,128.4,488.518,255.193,255.193,0,0,1,70.474,337.353Zm22.474,0H315.147V437.818a410.131,410.131,0,0,0-86.552,11.638C220.3,416.681,215.084,378.823,214.281,337.353Zm100.866,122.8V580.822c-30.233-7.893-60.867-48.025-80.4-109.829A378.11,378.11,0,0,1,315.147,460.158Zm22.207,120.263v-120.4a393.224,393.224,0,0,1,79.863,10.568C397.819,532.128,367.452,572.127,337.353,580.421Zm0-142.6V337.353h100.2c-.8,41.336-6.02,79.194-14.314,111.969a412.561,412.561,0,0,0-85.883-11.5ZM459.89,337.353h122a254.67,254.67,0,0,1-57.924,151.165,411.365,411.365,0,0,0-79.328-33.444C453.737,419.624,459.088,379.76,459.89,337.353Zm0-22.206c-.8-42.406-6.154-82.4-15.117-117.855a414.611,414.611,0,0,0,79.194-33.31,254.4,254.4,0,0,1,57.924,151.3h-122Zm48.827-168.288a386.9,386.9,0,0,1-69.964,28.9c-12.976-41.871-31.3-75.984-52.841-98.458a257.286,257.286,0,0,1,122.8,69.563ZM265.784,77.564c-21.538,22.34-39.731,56.453-52.573,98.056a380.052,380.052,0,0,1-69.295-28.761A254.355,254.355,0,0,1,265.784,77.564Zm-122,427.943a384.016,384.016,0,0,1,69.295-28.761c12.976,41.738,31.169,75.716,52.707,98.19A254.537,254.537,0,0,1,143.782,505.507Zm242.131,69.7c21.671-22.474,39.865-56.586,52.974-98.591a386.9,386.9,0,0,1,69.964,28.9,256.843,256.843,0,0,1-122.938,69.7Z" transform="translate(71.75 29.75)" fill="#dc1c17"/>
  </g>
</svg>
